<svg xmlns="http://www.w3.org/2000/svg" viewBox="0 0 32 32">
  <!-- Background circle -->
  <circle cx="16" cy="16" r="15" fill="#1a1a2e"/>

  <!-- Document shape -->
  <path d="M10 6h8l6 6v14a2 2 0 0 1-2 2H10a2 2 0 0 1-2-2V8a2 2 0 0 1 2-2z" fill="#3498db"/>

  <!-- Document fold -->
  <path d="M18 6v6h6" fill="none" stroke="#1a1a2e" stroke-width="1.5"/>
  <path d="M18 6l6 6h-5a1 1 0 0 1-1-1V6z" fill="#2980b9"/>

  <!-- MCP connection nodes -->
  <circle cx="12" cy="16" r="2" fill="#e74c3c"/>
  <circle cx="20" cy="16" r="2" fill="#2ecc71"/>
  <circle cx="16" cy="22" r="2" fill="#f39c12"/>

  <!-- Connection lines -->
  <line x1="12" y1="16" x2="20" y2="16" stroke="#ecf0f1" stroke-width="1" opacity="0.8"/>
  <line x1="12" y1="16" x2="16" y2="22" stroke="#ecf0f1" stroke-width="1" opacity="0.8"/>
  <line x1="20" y1="16" x2="16" y2="22" stroke="#ecf0f1" stroke-width="1" opacity="0.8"/>
</svg>
